<svg xmlns="http://www.w3.org/2000/svg" width="24" height="24" viewBox="0 0 24 24">
  <defs>
    <style>
      .cls-1 {
        fill: #5687f9;
      }

      .cls-2 {
        fill: none;
      }
    </style>
  </defs>
  <g id="alipay" transform="translate(-30 -456)">
    <path id="路径_361" data-name="路径 361" class="cls-1" d="M13.016,115.154a19.154,19.154,0,0,0,1.888-4.868h-4.62V108.6h5.464v-.745H10.284v-2.633H7.8v2.633H2.833v.745H7.8v1.739H3.528v.745h8.594c0,.149,0,.149-.149.248a8.6,8.6,0,0,1-1.143,3.13c-6.359-2.484-8.2-.994-8.694-.745-4.223,2.981-.248,6.706.4,6.607a8.9,8.9,0,0,0,9.339-3.229.453.453,0,0,0,.4.149c1.391.745,7.948,3.875,7.948,3.875V117.39a63.944,63.944,0,0,1-7.2-2.236ZM9.787,116.3c-3.13,3.974-6.855,2.732-7.452,2.484a2.2,2.2,0,0,1-.149-3.974c3.13-.994,5.862.149,7.849,1.143-.149.2-.248.348-.248.348Z" transform="translate(31.78 354.781)"/>
    <rect id="矩形_671" data-name="矩形 671" class="cls-2" width="24" height="24" transform="translate(30 456)"/>
  </g>
</svg>
