<svg xmlns="http://www.w3.org/2000/svg" width="28" height="28" viewBox="0 0 28 28">
  <g id="btc" transform="translate(0 0)">
    <g id="组_9" data-name="组 9" transform="translate(0 0)">
      <circle id="椭圆_4" data-name="椭圆 4" cx="14" cy="14" r="14" fill="#f6912c"/>
      <path id="路径_12" data-name="路径 12" d="M64.789,57.069c1.561-.011,3.569-.826,3.936-2.731a3.007,3.007,0,0,0-.918-2.823A6.805,6.805,0,0,0,64.238,50l.379-2.008-1.125-.218-.379,2.008-1.836-.356.379-2.008L60.531,47.2l-.379,2.008-2.972-.562-.161.849c1.618.425,1.87.689,1.5,2.628L56.848,60.9c-.367,1.939-.574,2.02-2.387,1.859l-.161.849,3,.574L56.962,65.9l1.125.218L58.42,64.4l1.836.356-.333,1.721,1.125.218.333-1.744a9.037,9.037,0,0,0,3.925-.23,4.25,4.25,0,0,0,2.9-3.19C68.61,59.456,67.13,57.975,64.789,57.069Zm-2.972-5.175a1.508,1.508,0,0,1,.4-.952,1.985,1.985,0,0,1,1.159-.069,2.539,2.539,0,0,1,2.054,3.259c-.321,1.71-1.308,2.5-3.5,2.077l-.9-.172Zm-.448,12.049c-1.239-.241-1.71-.826-1.389-2.49l.849-4.43.8.149c2.582.493,3.511,1.767,3.1,3.913C64.307,63.334,62.689,64.172,61.369,63.943Z" transform="translate(-47.53 -42.954)" fill="#fff"/>
    </g>
  </g>
</svg>
