<svg xmlns="http://www.w3.org/2000/svg" width="24" height="24" viewBox="0 0 24 24">
  <defs>
    <style>
      .cls-1 {
        fill: #f26d32;
      }

      .cls-2 {
        fill: none;
      }
    </style>
  </defs>
  <g id="cardpay" transform="translate(-30 -546)">
    <path id="路径_363" data-name="路径 363" class="cls-1" d="M17.917,143H2.082A2.147,2.147,0,0,1,0,140.792V130.206A2.147,2.147,0,0,1,2.082,128H17.918A2.147,2.147,0,0,1,20,130.206v10.586A2.147,2.147,0,0,1,17.917,143Zm1.25-12.17a1.894,1.894,0,0,0-1.835-1.947H2.668A1.893,1.893,0,0,0,.834,130.83v.7H19.167v-.7ZM.834,134.175v5.995a1.894,1.894,0,0,0,1.834,1.947H17.333a1.894,1.894,0,0,0,1.835-1.947v-5.995Zm12.083,6.617,1.25-2.646h4.167l-1.25,2.646Z" transform="translate(32 423)"/>
    <rect id="矩形_673" data-name="矩形 673" class="cls-2" width="24" height="24" transform="translate(30 546)"/>
  </g>
</svg>
