<svg xmlns="http://www.w3.org/2000/svg" width="28" height="28" viewBox="0 0 28 28">
  <g id="usdt" transform="translate(-45 -125)">
    <path id="路径_374" data-name="路径 374" d="M14,0A14,14,0,1,1,0,14,14,14,0,0,1,14,0Z" transform="translate(45 125)" fill="#4c7d35"/>
    <g id="组_268" data-name="组 268" transform="translate(-980 -974)">
      <rect id="矩形_363" data-name="矩形 363" width="17" height="17" transform="translate(1031 1105)" fill="none"/>
      <path id="路径_257" data-name="路径 257" d="M2431.211,77.086c0-1.211-3.214-1.772-6.042-1.915V74.016h4.105V71h-11.237v3.016h4.105v1.156c-2.828.143-6.042.7-6.042,1.915s3.214,1.772,6.042,1.915v5.91h3.016V79C2428,78.858,2431.211,78.3,2431.211,77.086Zm-7.55,1.409c-4.281,0-7.011-.836-7.011-1.42,0-.506,2.1-1.211,5.5-1.376v2.234h3.016V75.7c3.4.165,5.5.869,5.5,1.376C2430.672,77.659,2427.942,78.5,2423.661,78.5Z" transform="translate(-1384.156 1035.653)" fill="#fff"/>
    </g>
  </g>
</svg>
