<svg xmlns="http://www.w3.org/2000/svg" width="24" height="24" viewBox="0 0 24 24">
  <defs>
    <style>
      .cls-1 {
        fill: #2bcb5b;
      }

      .cls-2 {
        fill: none;
      }
    </style>
  </defs>
  <g id="wechatpay" transform="translate(-30 -502)">
    <path id="路径_362" data-name="路径 362" class="cls-1" d="M134.423,206.13a6.208,6.208,0,0,1,5.138-1.826,2.2,2.2,0,0,0-.114-.5,10.543,10.543,0,0,0-1.035-1.86,8.008,8.008,0,0,0-11.123-.812,5.344,5.344,0,0,0-1.815,5.381,5.526,5.526,0,0,0,2.228,3.241.659.659,0,0,1,.261.9c-.19.482-.333.983-.5,1.476a3.84,3.84,0,0,0,1.169-.456,3,3,0,0,1,2.555-.44,9.091,9.091,0,0,0,1.945.154A5.286,5.286,0,0,1,134.423,206.13Zm.6-3.745a.815.815,0,0,1,.062,1.63.829.829,0,1,1-.062-1.63Zm-4.9,1.629a.827.827,0,1,1-.017-1.629.8.8,0,0,1,.855.832A.781.781,0,0,1,130.127,204.014Zm13.681,2.333a6.724,6.724,0,0,0-8.124-.772,4.764,4.764,0,0,0,.072,8.346,6.352,6.352,0,0,0,5.115.744,1.17,1.17,0,0,1,1.005.132c.447.277.923.507,1.386.758l.1-.074c-.127-.443-.281-.881-.367-1.331a.735.735,0,0,1,.154-.546c.295-.339.667-.612.961-.952A4.319,4.319,0,0,0,143.807,206.347Zm-6.393,2.432a.657.657,0,0,1-.688-.657.635.635,0,0,1,.68-.609.706.706,0,0,1,.76.648A.734.734,0,0,1,137.415,208.78Zm3.856,0a.714.714,0,0,1-.693-.623.691.691,0,0,1,.712-.644.671.671,0,0,1,.735.664A.71.71,0,0,1,141.27,208.78Z" transform="translate(-93.332 306.736)"/>
    <rect id="矩形_672" data-name="矩形 672" class="cls-2" width="24" height="24" transform="translate(30 502)"/>
  </g>
</svg>
